<svg width="800" height="520" viewBox="0 0 800 520" fill="none" xmlns="http://www.w3.org/2000/svg">
  <defs>
    <linearGradient id="bg" x1="0" y1="0" x2="800" y2="520" gradientUnits="userSpaceOnUse">
      <stop stop-color="#4F46E5"/>
      <stop offset="1" stop-color="#7C3AED"/>
    </linearGradient>
    <linearGradient id="card" x1="0" y1="0" x2="0" y2="1">
      <stop stop-color="#10162F"/>
      <stop offset="1" stop-color="#0B1020"/>
    </linearGradient>
  </defs>
  <rect width="800" height="520" rx="36" fill="url(#bg)"/>
  <circle cx="640" cy="120" r="120" fill="white" fill-opacity="0.12"/>
  <circle cx="120" cy="420" r="150" fill="white" fill-opacity="0.10"/>
  <rect x="170" y="120" width="460" height="280" rx="28" fill="url(#card)" stroke="white" stroke-opacity="0.15" stroke-width="2"/>
  <path d="M290 330C320 270 360 240 400 230C440 220 480 230 510 260" stroke="#C7D2FE" stroke-width="8" stroke-linecap="round"/>
  <path d="M380 320C380 280 360 250 330 230" stroke="#A5B4FC" stroke-width="6" stroke-linecap="round"/>
  <path d="M380 320C380 280 410 250 450 235" stroke="#A5B4FC" stroke-width="6" stroke-linecap="round"/>
  <circle cx="400" cy="210" r="26" stroke="#E0E7FF" stroke-width="6"/>
  <path d="M400 230V340" stroke="#E0E7FF" stroke-width="8" stroke-linecap="round"/>
  <rect x="230" y="170" width="340" height="34" rx="10" fill="white" fill-opacity="0.08"/>
</svg>
